<?xml version="1.0" encoding="UTF-8"?>
<svg id="Layer_2" data-name="Layer 2" xmlns="http://www.w3.org/2000/svg" xmlns:xlink="http://www.w3.org/1999/xlink" viewBox="0 0 230.2 254.18">
  <defs>
    <style>
      .cls-1 {
        fill: #fff4e3;
      }

      .cls-2 {
        fill: #cb333b;
      }

      .cls-3 {
        fill: url(#linear-gradient);
      }
    </style>
    <linearGradient id="linear-gradient" x1="126.7" y1="12.57" x2="77.41" y2="243.97" gradientUnits="userSpaceOnUse">
      <stop offset="0" stop-color="#cb333b"/>
      <stop offset="1" stop-color="#333"/>
    </linearGradient>
  </defs>
  <g id="Layer_1-2" data-name="Layer 1">
    <g>
      <path class="cls-3" d="M229.49,67.06s-.02,0-.03-.01c-1.08-.4-2.71-.82-4.57-.49-.57.1-.21.04-2.61.84-3.38,1.13-4.08,1.37-5.06,1.9-.96.52-1.59.91-1.59.91-1.45.82-3.95,2.24-7.03,4.01-16.85,9.65-30.52,17.8-53.31,31.03-12.21,7.09-16.4,9.46-20.07,11-.28.12-1.13.4-2.26.87-1.1.46-4.27,1.85-9.33,5.32-6.49,4.46-7.24,4.85-7.1,5.44.42,1.78,7.46,1.4,7.48,2,0,.42-3.33.84-6.12,1.13-2.91,62.12-4.97,108.6-5.24,115.73h4.08l2.07,6.66c-.21.1-.43.21-.67.3-.34.13-.7.25-1.09.34-.04.01-.09.02-.13.03-2.24.37-4.33-.29-4.33-.29-.99-.33-1.66-.77-1.87-.9-1.9-1.21-8.15-4.57-17.69-9.56,0,0-62.68-33.52-89.36-48.35-.09-.05-.17-.1-.27-.16-.09-.05-.17-.11-.25-.17-1.95-1.34-3.13-3.56-3.13-5.95l.39-119.45c.01-2.59,1.39-4.99,3.62-6.3C39.18,42.3,74.35,21.64,109.52,1c2.24-1.31,5.01-1.33,7.26-.04,36.59,21.03,108.82,62.56,109.92,63.25.43.27.79.57.79.57.4.38.83.82,1.26,1.33.27.33.52.65.74.96Z"/>
      <path class="cls-1" d="M230.2,69.43v115.88c0,4.21-2.32,8.1-6.08,10.16l-104.87,57.79c-2.98,1.64-6.67-.46-6.66-3.81.51-37.59,1.02-75.19,1.53-112.78.08-2.12.36-3.85.62-5.09.22-1.05.53-2.47,1.11-3.7,1.45-3.06,4.42-4.52,5.31-4.99,34.55-18.3,67.9-38.79,102.36-57.26.33-.18,1.51-.84,2.93-.62,1.42.21,2.24,1.14,2.24,1.14,1.08.88,1.4,2.27,1.5,3.26Z"/>
      <g>
        <path class="cls-2" d="M203.91,174.95c-.79-4.98-1.9-9.87-2.84-15.02-.04-.25-.13-.43-.27-.52-3.04.26-6.32.71-9.86,1.1-.36.02-.6-.49-.83-.84-1.62-2.43-3.2-5.11-4.92-7.74-3.92-2.5-8.33-4.82-12.96-7.77l-2.26-5.24c-.32-.52-.93-.57-1.3-.16l-24.65,32.38c-4.59,6.01-2.61,14.05,3.65,14.79,23.7-1.25,40.4-2.5,52.74-3.27.11-.05.23-.07.33-.13,1.94-1.06,3.32-4.34,3.17-7.57ZM165.37,174.76c-2.89,4.49-8.57,4.81-10.48.23-1.81-4.33,1.04-10.2,5.4-11.16,5.49-1.21,8.53,5.57,5.09,10.93ZM168.61,151c3.76-.44,4.69,6.44,1.03,7.91-4.75,1.91-5.95-7.34-1.03-7.91ZM175.16,172.47c-5.45,2.54-6.7-8.45-1.01-9.84,4.66-1.14,5.62,7.7,1.01,9.84Z"/>
        <path class="cls-2" d="M192.48,112.02c2.01.53,3.74,3.03,4.23,6.19,1.36,13.1,2.6,25.79,3.85,38.06,0,.82-.36,1.49-.85,1.56l-8.72-1.33c-.31-.08-.46-.19-.67-.55l-4.48-9.91-6.11-22.61c-.17-.82.1-1.45.54-1.81,3.58-2.97,6.73-6.35,9.87-8.91.7-.57,1.47-.92,2.35-.69Z"/>
        <path class="cls-2" d="M173.53,121.63c.52.11.99.64,1.25,1.27l6.86,17.17c.41,1.34-.52,2.67-1.5,2.11l-9.84-6.44-.54-.67c-.61-1.63-1.45-3.25-2.08-4.91-.26-.69-.41-1.21-.18-1.9,1.62-2.31,3.48-4.23,5.09-6.32.23-.21.64-.36.94-.3Z"/>
      </g>
    </g>
  </g>
</svg>